<?xml version="1.0" encoding="UTF-8" standalone="no"?>
<svg
   viewBox="0 0 24 24"
   version="1.1"
   id="svg3791"
   sodipodi:docname="ig.svg"
   inkscape:version="1.2.2 (732a01da63, 2022-12-09)"
   xmlns:inkscape="http://www.inkscape.org/namespaces/inkscape"
   xmlns:sodipodi="http://sodipodi.sourceforge.net/DTD/sodipodi-0.dtd"
   xmlns="http://www.w3.org/2000/svg"
   xmlns:svg="http://www.w3.org/2000/svg">
  <defs
     id="defs3795" />
  <sodipodi:namedview
     id="namedview3793"
     pagecolor="#ffffff"
     bordercolor="#000000"
     borderopacity="0.25"
     inkscape:showpageshadow="2"
     inkscape:pageopacity="0.0"
     inkscape:pagecheckerboard="0"
     inkscape:deskcolor="#d1d1d1"
     showgrid="false"
     inkscape:zoom="10.9375"
     inkscape:cx="17.645714"
     inkscape:cy="7.4057143"
     inkscape:window-width="1360"
     inkscape:window-height="705"
     inkscape:window-x="-8"
     inkscape:window-y="-8"
     inkscape:window-maximized="1"
     inkscape:current-layer="g3789" />
  <g
     data-name="Layer 2"
     id="g3789"
     transform="matrix(0.56190476,0,0,0.56190476,2.3771429,-0.04571429)">
    <path
       id="rect6191-0"
       style="fill:#000000;fill-opacity:1;stroke:#000000;stroke-width:0.995157;stroke-opacity:1"
       inkscape:transform-center-x="0.11722"
       inkscape:transform-center-y="-0.99251555"
       d="m 4.4147492,4.9831422 c -2.4204079,0 -4.37092353,2.3636851 -4.37092353,5.2993398 v 22.131214 c 0,2.935656 1.95051563,5.299342 4.37092353,5.299342 H 29.261368 c 2.420408,0 4.370924,-2.363686 4.370924,-5.299342 V 10.282482 c 0,-2.9356547 -1.950516,-5.2993398 -4.370924,-5.2993398 z M 8.0018966,9.4358801 H 25.895365 c 1.7428,0 3.144854,1.7023739 3.144854,3.8161719 v 15.936802 c 0,2.113799 -1.402054,3.812938 -3.144854,3.812938 H 8.0018966 c -1.7427953,0 -3.1448518,-1.699139 -3.1448518,-3.812938 V 13.252052 c 0,-2.113798 1.4020565,-3.8161719 3.1448518,-3.8161719 z" />
    <circle
       style="fill:#000000;fill-opacity:1;stroke:none;stroke-width:1.94573;stroke-opacity:1"
       id="path7013"
       cx="17.220451"
       cy="20.986673"
       r="5.8010192" />
  </g>
</svg>
