<?xml version="1.0" encoding="UTF-8" standalone="no"?>
<svg
   viewBox="0 0 24 24"
   version="1.1"
   id="svg73"
   sodipodi:docname="Whattsapp.svg"
   inkscape:version="1.2.2 (732a01da63, 2022-12-09)"
   xmlns:inkscape="http://www.inkscape.org/namespaces/inkscape"
   xmlns:sodipodi="http://sodipodi.sourceforge.net/DTD/sodipodi-0.dtd"
   xmlns="http://www.w3.org/2000/svg"
   xmlns:svg="http://www.w3.org/2000/svg">
  <defs
     id="defs77" />
  <sodipodi:namedview
     id="namedview75"
     pagecolor="#ffffff"
     bordercolor="#000000"
     borderopacity="0.25"
     inkscape:showpageshadow="2"
     inkscape:pageopacity="0.0"
     inkscape:pagecheckerboard="0"
     inkscape:deskcolor="#d1d1d1"
     showgrid="false"
     inkscape:zoom="29.580634"
     inkscape:cx="5.6455856"
     inkscape:cy="7.3358807"
     inkscape:window-width="1360"
     inkscape:window-height="705"
     inkscape:window-x="-8"
     inkscape:window-y="-8"
     inkscape:window-maximized="1"
     inkscape:current-layer="svg73" />
  <g
     data-name="Layer 2"
     id="g71"
     transform="matrix(0.51792829,0,0,0.51792829,1.9591642,0.0024025)"
     style="stroke:#ffffff;stroke-width:1.19322">
    <g
       data-name="message-circle"
       id="g69">
      <g
         id="rect65"
         style="opacity:0">
        <path
           style="color:#000000;fill:#000000;stroke:none;-inkscape-stroke:none"
           d="M 0,0 H 24 V 24 H 0 Z"
           id="path3283" />
        <path
           style="color:#000000;fill:#ffffff;stroke:none;-inkscape-stroke:none"
           d="M -0.59570312,-0.59570312 V 0 24.595703 H 24.595703 V -0.59570312 Z M 0.59570312,0.59570312 H 23.404297 V 23.404297 H 0.59570312 Z"
           id="path3285" />
      </g>
      <g
         id="path67">
        <path
           style="color:#000000;fill:#000000;stroke:none;-inkscape-stroke:none"
           d="m 19.07,4.93 c -7.778646,-7.8294361 -20.641657,0.8617875 -16.28,11 0.09589,0.198763 0.1273533,0.422499 0.09,0.64 L 2,20.8 C 1.931129,21.129442 2.032598,21.47143 2.27,21.71 2.4635931,21.902189 2.7272975,22.006948 3,22 h 0.2 l 4.28,-0.86 c 0.2175298,-0.02615 0.4381199,0.0049 0.64,0.09 10.138213,4.361657 18.829436,-8.501354 11,-16.28 z"
           id="path3289" />
        <path
           style="color:#000000;fill:#ffffff;stroke:none;-inkscape-stroke:none"
           d="M 12.679688,1.3378906 C 10.308356,1.1988322 7.9659984,1.8979213 6.0429687,3.1972656 2.1969095,5.7959543 -0.04724022,10.844482 2.2421875,16.166016 l 0.00391,0.01172 0.00586,0.01172 c 0.041089,0.08517 0.055812,0.180144 0.041016,0.273438 l -0.8769532,4.214843 c -0.1098125,0.525285 0.053111,1.072734 0.4316406,1.453125 v 0.002 h 0.00195 c 0.3089061,0.306666 0.73088,0.473978 1.1660156,0.462891 H 3.2597671 L 7.554689,21.732472 c 0.1132476,-0.01293 0.2287901,0.0025 0.3339844,0.04687 5.3199806,2.286421 10.3648896,0.04231 12.9628896,-3.802735 2.598689,-3.846059 2.799114,-9.3662177 -1.310546,-13.4492183 l -0.08594,-0.085937 -0.132812,-0.052734 C 17.31618,2.4425139 14.988874,1.4733048 12.679688,1.3378906 Z m -0.0957,1.1640625 c 2.091922,0.1165467 4.214682,0.9877722 6.0625,2.8476563 l 0.08789,0.087891 0.01563,0.00586 c 3.650149,3.6865174 3.423402,8.4462566 1.113281,11.8652346 -2.324112,3.439686 -6.691143,5.445272 -11.5078122,3.373047 h -0.00195 l -0.00195,-0.002 C 8.0542039,20.55434 7.7287508,20.508341 7.4082031,20.546875 l -0.023437,0.0039 -4.2441406,0.853516 h -0.148438 -0.00781 c -0.1087569,0.0028 -0.2130658,-0.03955 -0.2910156,-0.115235 -0.096274,-0.09675 -0.1373044,-0.233588 -0.109375,-0.367187 l 0.8828125,-4.240234 0.00195,-0.0098 c 0.058365,-0.33985 0.0092,-0.691383 -0.140625,-1.001953 l 0.00977,0.02344 C 1.2656657,10.876691 3.2712513,6.5096592 6.7109375,4.1855469 8.4307806,3.0234907 10.492063,2.3854065 12.583984,2.5019531 Z"
           id="path3291" />
      </g>
    </g>
  </g>
  <g
     data-name="Layer 2"
     id="g304"
     transform="matrix(0.35619048,0,0,0.35619048,3.8590046,1.7850733)"
     style="fill:#ffffff;fill-opacity:1">
    <g
       data-name="phone"
       id="g302"
       style="fill:#ffffff;fill-opacity:1">
      <path
         id="rect298"
         style="opacity:0"
         d="M 0,0 H 24 V 24 H 0 Z" />
      <path
         d="M 17.4,22 A 15.42,15.42 0 0 1 2,6.6 4.6,4.6 0 0 1 6.6,2 3.94,3.94 0 0 1 7.37,2.07 3.79,3.79 0 0 1 8.09,2.25 1,1 0 0 1 8.74,3 l 1.37,6 A 1,1 0 0 1 9.85,9.92 c -0.13,0.14 -0.14,0.15 -1.37,0.79 a 9.91,9.91 0 0 0 4.87,4.89 c 0.65,-1.24 0.66,-1.25 0.8,-1.38 a 1,1 0 0 1 0.92,-0.26 l 6,1.37 a 1,1 0 0 1 0.72,0.65 4.34,4.34 0 0 1 0.19,0.73 4.77,4.77 0 0 1 0.06,0.76 A 4.6,4.6 0 0 1 17.4,22 Z"
         id="path300"
         style="fill:#ffffff;fill-opacity:1" />
    </g>
  </g>
</svg>
